<!DOCTYPE svg PUBLIC "-//W3C//DTD SVG 1.1//EN" "http://www.w3.org/Graphics/SVG/1.1/DTD/svg11.dtd">
<!-- Uploaded to: SVG Repo, www.svgrepo.com, Transformed by: SVG Repo Mixer Tools -->
<svg fill="#fff" width="800px" height="800px" viewBox="0 0 512 512" version="1.1" xml:space="preserve" xmlns="http://www.w3.org/2000/svg" xmlns:xlink="http://www.w3.org/1999/xlink" stroke="#fff">
<g id="SVGRepo_bgCarrier" stroke-width="0"/>
<g id="SVGRepo_tracerCarrier" stroke-linecap="round" stroke-linejoin="round"/>
<g id="SVGRepo_iconCarrier"> <g id="_x34_96_x2C__Design_x2C__designer_x2C__digital_x2C__tools_x2C__pencil"> <g> <path d="M138.183,103.441V68.063c0-1.301-0.541-2.508-1.415-3.365 c-0.874-0.889-2.063-1.43-3.379-1.43H85.512c-0.46,0-0.902,0.191-1.204,0.509l-0.112,0.127c-0.252,0.285-0.414,0.667-0.414,1.079 v38.459H138.183z M138.183,361.559V130.814H83.782v230.744h23.31V152.822c0-2.128,1.748-3.875,3.906-3.875 c2.144,0,3.892,1.747,3.892,3.875v208.736H138.183z M394.236,155.84h-39.044v256.34h39.044V155.84z M253.968,421.549V63.553 h-58.401v41.793h18.99c2.162,0,3.906,1.746,3.906,3.906c0,2.127-1.744,3.874-3.906,3.874h-18.99v37.728h34.344 c2.162,0,3.906,1.746,3.906,3.906c0,2.158-1.744,3.906-3.906,3.906h-34.344v37.727h18.99c2.162,0,3.906,1.746,3.906,3.875 c0,2.158-1.744,3.905-3.906,3.905h-18.99V241.9h34.344c2.162,0,3.906,1.746,3.906,3.906c0,2.158-1.744,3.906-3.906,3.906h-34.344 v37.727h18.99c2.162,0,3.906,1.747,3.906,3.875c0,2.158-1.744,3.905-3.906,3.905h-18.99v37.728h34.344 c2.162,0,3.906,1.746,3.906,3.906c0,2.158-1.744,3.906-3.906,3.906h-34.344v37.727h18.99c2.162,0,3.906,1.746,3.906,3.873 c0,2.16-1.744,3.906-3.906,3.906h-18.99v35.283H253.968z M261.763,63.553v357.996h13.785V63.553H261.763z M301.111,82.449h147.191 V64.284H301.111V82.449z M448.303,90.262H301.111v57.766h50.063h0.113h46.854h0.099h50.063V90.262z M138.183,391.474v-22.102 H83.782v22.102l27.202,43.603L138.183,391.474z M148.648,29.034c2.141,0,3.889,1.747,3.889,3.905c0,2.129-1.748,3.875-3.889,3.875 H56.011v134.332c0,2.127-1.762,3.906-3.906,3.906c-2.144,0-3.906-1.779-3.906-3.906V32.939c0-2.158,1.762-3.905,3.906-3.905 H148.648z M469.946,97.216c0-2.159,1.748-3.906,3.906-3.906c2.144,0,3.889,1.747,3.889,3.906v86.378 c0,2.16-1.745,3.906-3.889,3.906h-41.841v104.83c0,2.159-1.747,3.906-3.889,3.906c-2.161,0-3.905-1.747-3.905-3.906V183.594 c0-2.158,1.744-3.906,3.905-3.906h41.823V97.216z M41.991,464.292c-2.158,0-3.906-1.745-3.906-3.905 c0-2.127,1.748-3.906,3.906-3.906h306.706c2.162,0,3.906,1.779,3.906,3.906c0,2.16-1.744,3.905-3.906,3.905H41.991z M221.593,482.967c-2.144,0-3.906-1.748-3.906-3.906c0-2.16,1.762-3.906,3.906-3.906h212.244c2.145,0,3.906,1.746,3.906,3.906 c0,2.158-1.762,3.906-3.906,3.906H221.593z M455.561,482.967c-2.162,0-3.906-1.748-3.906-3.906c0-2.16,1.744-3.906,3.906-3.906 h26.532c2.145,0,3.906,1.746,3.906,3.906c0,2.158-1.762,3.906-3.906,3.906H455.561z M29.907,482.395 c-2.144,0-3.906-1.746-3.906-3.906s1.762-3.906,3.906-3.906h100.576c2.141,0,3.906,1.746,3.906,3.906s-1.765,3.906-3.906,3.906 H29.907z M138.183,123.002v-11.749H83.782v11.749H138.183z" style="fill-rule:evenodd;clip-rule:evenodd;"/> </g> </g> <g id="Layer_1"/> </g>
</svg>